<svg id="ccm-pin" xmlns="http://www.w3.org/2000/svg" width="37.406" height="37" viewBox="0 0 37.406 37">
  <circle id="Ellipse_8" data-name="Ellipse 8" cx="15.5" cy="15.5" r="15.5" transform="translate(3.203)"/>
  <g id="Group_50" data-name="Group 50" transform="translate(0 11.045)">
    <g id="Group_49" data-name="Group 49">
      <path id="Path_20_-_Outline" data-name="Path 20 - Outline" d="M890.068,62.886h-.654c-.1,0-.1,0-.1.1v2.943q0,1.023,0,2.047c0,.091,0,.091.087.091h.689c.051,0,.055-.007.058-.058,0-.013,0-.026,0-.039V66.337c0-.107,0-.107.1-.107h3.829a.112.112,0,0,0,.1-.05c.086-.154.172-.308.258-.463q.255-.46.509-.921c.018-.032.055-.08.037-.1s-.066-.014-.1-.014h-4.618c-.021,0-.041,0-.061,0-.047,0-.056-.013-.058-.061,0-.013,0-.026,0-.039V62.994c0-.015,0-.031,0-.046,0-.054-.007-.059-.063-.061h-.018m0-1.849.093,0a1.879,1.879,0,0,1,1.832,1.789h2.939a1.9,1.9,0,0,1,1.692,1.008h0a1.892,1.892,0,0,1-.068,1.873c-.167.3-.332.6-.5.9l-.133.238-.125.224-.031.057-.035.054a1.958,1.958,0,0,1-1.527.887l-.062,0H892c0,.005,0,.011,0,.016v.02a1.892,1.892,0,0,1-1.877,1.806H889.4a1.9,1.9,0,0,1-1.933-1.94q0-.818,0-1.637V62.991a1.887,1.887,0,0,1,1.948-1.953Z" transform="translate(-860.15 -61.024)"/>
      <path id="Path_19_-_Outline" data-name="Path 19 - Outline" d="M1003.773,70.336a.1.1,0,0,0,.1-.058c.006-.014.016-.026.023-.04.114-.212.229-.423.342-.636a.307.307,0,0,0-.018-.347c-.031-.043-.039-.047-.089-.025s-.092.043-.138.064l-1.09.5-1.041.479c-.022.013-.053.023-.1.05-.009.005-.009.013.021.014h1.343c.215,0,.429,0,.643,0h0m0,1.849h-2.02a1.855,1.855,0,0,1-.9-3.471c.06-.034.113-.061.152-.08l.011-.007.073-.034,1.047-.481.659-.3.454-.208c.037-.018.092-.044.158-.072a1.918,1.918,0,0,1,.769-.161,1.893,1.893,0,0,1,1.545.8,2.163,2.163,0,0,1,.152,2.3c-.085.16-.171.318-.256.477l-.092.17-.024.044A1.928,1.928,0,0,1,1003.773,72.184Z" transform="translate(-968.725 -67.136)"/>
      <path id="Path_23_-_Outline" data-name="Path 23 - Outline" d="M944.055,62.777h-.69a.18.18,0,0,0-.073.015l-.137.065-.526.254-.759.363-.5.24-.74.351c-.017.008-.059.024-.055.036s.029.013.04.013h.734a.148.148,0,0,0,.065-.017l.451-.217.6-.293,1-.491.539-.262c.022-.011.082-.044.082-.052s-.017-.006-.033-.006m0-1.849a1.848,1.848,0,0,1,1.881,1.855h0a1.886,1.886,0,0,1-1.12,1.713l-.28.136-.257.125-.6.3-.4.195-.607.3-.281.135-.175.084a1.981,1.981,0,0,1-.867.2h-.738a1.864,1.864,0,0,1-.758-3.575l.341-.162.38-.18.258-.124.238-.114.345-.165.414-.2.335-.162.186-.09.169-.08a2.01,2.01,0,0,1,.845-.184h.691Z" transform="translate(-909.646 -60.918)"/>
      <path id="Path_21_-_Outline" data-name="Path 21 - Outline" d="M927.958,173.488a2.517,2.517,0,0,0,.388-.023,2.755,2.755,0,0,0,.482-.115c.017-.006.046-.011.045-.039s-.02-.028-.035-.037l-.034-.018c-.076-.04-.152-.08-.228-.122-.344-.19-.686-.38-1.03-.57q-.443-.243-.887-.484c-.073-.04-.081-.037-.077.048v.008q0,.629,0,1.258c0,.008,0,.015,0,.023,0,.065,0,.067.071.069h1.305m0,1.849h-1.344a1.875,1.875,0,0,1-1.88-1.868v-.022c0-.019,0-.038,0-.058v-1.237a1.871,1.871,0,0,1,1.867-1.942,1.941,1.941,0,0,1,.944.251l.233.127.659.36.594.328.438.242.128.069.065.034c.026.013.058.03.1.052a1.882,1.882,0,0,1,.962,1.559v.007a1.869,1.869,0,0,1-1.309,1.868,4.549,4.549,0,0,1-.78.187A4.275,4.275,0,0,1,927.958,175.337Z" transform="translate(-896.135 -166.439)"/>
      <path id="Path_24_-_Outline" data-name="Path 24 - Outline" d="M971.706,173.233h-.6c-.03,0-.078,0-.053.018a.787.787,0,0,0,.068.04l.264.134.953.486c.075.038.08.036.122-.04.031-.056.063-.111.094-.167s.027-.058-.022-.083-.119-.055-.178-.085l-.534-.272a.245.245,0,0,0-.114-.032m0-1.849a2.083,2.083,0,0,1,.953.233l0,0,.52.265.03.014c.041.019.1.045.162.078a1.881,1.881,0,0,1,.8,2.623l-.052.093-.038.067a1.912,1.912,0,0,1-1.679,1.025,1.963,1.963,0,0,1-.9-.226l-.953-.486-.254-.129a2.568,2.568,0,0,1-.236-.136l-.01-.007a1.858,1.858,0,0,1,1.06-3.416h.6Z" transform="translate(-939.07 -167.574)"/>
      <path id="Path_25_-_Outline" data-name="Path 25 - Outline" d="M1005.235,171.446H1005c-.016,0-.067,0-.065.009s.033.026.045.032l.142.073.25.127c.026.013.054.025.073-.008.038-.066.074-.134.111-.2.01-.018,0-.029-.019-.031h-.3m0-1.849h.266a2.11,2.11,0,0,1,.224.011,1.867,1.867,0,0,1,1.46,2.734l0,.005c-.042.079-.088.165-.143.26l0,.007a1.894,1.894,0,0,1-1.627.934,1.923,1.923,0,0,1-.881-.215l-.276-.141-.123-.063-.005,0a1.883,1.883,0,0,1-1.012-1.344l-.17-.808.554-.686a1.879,1.879,0,0,1,1.492-.692h.248Z" transform="translate(-971.789 -165.849)"/>
      <path id="Path_22_-_Outline" data-name="Path 22 - Outline" d="M927.987,62.952h-1.316c-.08,0-.08,0-.08.082q0,.552,0,1.1c0,.01,0,.021,0,.031,0,.05.015.059.062.037l.659-.31.515-.242.584-.273c.179-.083.358-.165.536-.25.107-.051.217-.095.319-.157.03-.017.022-.019.009-.02h-1.287m0-1.849h1.2l.143,0h.015a1.853,1.853,0,0,1,.865,3.458,3.867,3.867,0,0,1-.4.2l-.06.028c-.134.064-.264.124-.389.182l-.167.077-.08.037-.5.234-.415.2-.3.14-.462.217a1.923,1.923,0,0,1-.821.186,1.867,1.867,0,0,1-1.87-1.773c0-.07,0-.128,0-.169v-.354q0-.369,0-.738a1.888,1.888,0,0,1,1.928-1.929Z" transform="translate(-896.144 -61.088)"/>
      <path id="Path_23" data-name="Path 23" d="M944.239,62.935c0,.008-.06.041-.082.052l-.539.262-1,.491-.6.293-.451.217a.147.147,0,0,1-.065.017h-.734c-.009,0-.045,0-.04-.013s.038-.028.055-.036l.74-.351.5-.24.759-.363.526-.254.137-.065a.173.173,0,0,1,.073-.015h.666C944.193,62.929,944.239,62.926,944.239,62.935Z" transform="translate(-909.798 -61.07)" fill="#fff"/>
      <g id="Group_41" data-name="Group 41">
        <path id="Path_16_-_Outline" data-name="Path 16 - Outline" d="M608.879,62.48a.131.131,0,0,0-.132.082c-.158.3-.318.595-.479.892-.149.275-.3.55-.448.825-.16.3-.319.594-.479.891-.121.224-.243.448-.364.672l-.518.961-.433.8c-.045.083-.042.087.047.087h1.066a.057.057,0,0,0,.057-.035c.027-.049.055-.1.081-.146l.5-.906c.011-.02.028-.06.047-.052s.006.058.006.084q0,.49,0,.98c0,.072,0,.074.071.075h3.29c.026,0,.052,0,.077,0a.077.077,0,0,0,.08-.047c.088-.162.177-.323.266-.485.1-.185.2-.37.3-.555.011-.019.025-.051.048-.048s.007.051.007.077v.973c0,.087,0,.085.09.085h3.389c.029,0,.042-.017.042-.047,0-.012,0-.025,0-.037q0-2.521,0-5.042c0-.08,0-.082-.079-.083h-.028c-.791,0-1.58,0-2.371,0a.059.059,0,0,0-.057.035c-.009.017-.02.033-.029.05l-.564.984c-.013.022-.033.059-.048.06s-.017-.08-.018-.1c-.006-.129-.007-.211-.01-.333,0-.205-.021-.411-.031-.616,0-.072,0-.074-.071-.076h-1.218l-2.086,0h0m0-1.849h0l2.086,0h1.253a2.065,2.065,0,0,1,.385.043,1.937,1.937,0,0,1,.4-.043h2.426a1.891,1.891,0,0,1,1.906,1.932v5.042q0,.013,0,.026a1.9,1.9,0,0,1-1.842,1.906h-3.451a2.087,2.087,0,0,1-.389-.038,1.917,1.917,0,0,1-.445.038h-3.347a2.049,2.049,0,0,1-.353-.036,1.907,1.907,0,0,1-.37.036h-1.069a1.875,1.875,0,0,1-1.673-2.814l.23-.425.2-.374.255-.473.263-.489.183-.338.181-.333.206-.383.274-.51.236-.435.212-.39.043-.08c.142-.262.288-.533.428-.8A1.969,1.969,0,0,1,608.879,60.631Z" transform="translate(-586.829 -60.631)"/>
        <path id="Path_17_-_Outline" data-name="Path 17 - Outline" d="M103.139,67.73h0c1.062,0,2.124,0,3.186,0s2.11,0,3.165,0a1.626,1.626,0,0,0,.209-.015,1.437,1.437,0,0,0,.815-.409,2.8,2.8,0,0,0,.462-.609c.132-.226.26-.454.39-.682.015-.026.043-.063.03-.084s-.056-.014-.085-.014q-1.751,0-3.5,0a.15.15,0,0,0-.152.1c-.074.142-.151.282-.236.418a.519.519,0,0,1-.283.229.813.813,0,0,1-.241.041.536.536,0,0,1-.181-.011.137.137,0,0,1-.1-.177.663.663,0,0,1,.077-.181l.569-.982c.293-.508.585-1.017.88-1.524a.766.766,0,0,1,.224-.26.407.407,0,0,1,.4-.04.173.173,0,0,1,.1.232.378.378,0,0,1-.027.068q-.153.286-.307.57l-.526.973c-.036.066-.028.079.045.079h3.621a.083.083,0,0,0,.089-.052c.067-.132.138-.262.207-.393.1-.185.193-.37.29-.556s.191-.366.288-.548a1.783,1.783,0,0,0,.248-.674.512.512,0,0,0-.1-.384.714.714,0,0,0-.336-.217,1.845,1.845,0,0,0-.62-.1q-2.422,0-4.844,0h-1.03a1.051,1.051,0,0,0-.263.033,1.693,1.693,0,0,0-.666.348,1.215,1.215,0,0,0-.292.353c-.086.157-.175.313-.263.47l-.791,1.408-.333.589c-.212.376-.423.753-.636,1.128a.539.539,0,0,0-.067.382.627.627,0,0,0,.583.5m0,1.849h0a2.461,2.461,0,0,1-2.4-1.985,2.4,2.4,0,0,1,.273-1.66q.219-.384.435-.77l.2-.351.146-.259.186-.329.708-1.259.146-.26c.064-.114.128-.227.191-.342a3.066,3.066,0,0,1,.731-.885,3.537,3.537,0,0,1,1.388-.718,2.9,2.9,0,0,1,.723-.092h2.387q1.745,0,3.49,0a3.692,3.692,0,0,1,1.24.207,2.513,2.513,0,0,1,1.159.8,2.341,2.341,0,0,1,.5,1.7,3.533,3.533,0,0,1-.457,1.375q-.124.232-.245.466l-.037.071-.128.246-.162.311-.085.16c-.037.07-.075.14-.111.211a1.955,1.955,0,0,1-.321.456,2.085,2.085,0,0,1-.133.261l-.071.125c-.1.18-.208.367-.317.553a4.6,4.6,0,0,1-.772,1.006,3.3,3.3,0,0,1-1.847.914,3.357,3.357,0,0,1-.464.033H104.6l-1.451,0Z" transform="translate(-100.698 -60.669)"/>
        <path id="Path_18" data-name="Path 18" d="M363.579,67.878q-1.6,0-3.193,0a.612.612,0,0,1-.569-.48.541.541,0,0,1,.063-.4c.155-.26.3-.527.448-.791l.367-.653.861-1.536c.12-.214.239-.428.359-.641a1.189,1.189,0,0,1,.3-.339,1.649,1.649,0,0,1,.657-.335,1.083,1.083,0,0,1,.25-.031q2.936,0,5.873,0a1.838,1.838,0,0,1,.654.111.706.706,0,0,1,.28.177.471.471,0,0,1,.128.324,1.215,1.215,0,0,1-.156.589c-.1.186-.193.371-.29.555l-.43.819c-.049.092-.1.184-.143.279a.109.109,0,0,1-.115.072c-.613,0-1.226,0-1.838,0h-1.761c-.09,0-.091,0-.047-.084q.192-.36.386-.718l.428-.8a.578.578,0,0,0,.04-.094.178.178,0,0,0-.108-.237.417.417,0,0,0-.456.1,1.282,1.282,0,0,0-.216.3L364.4,65.7q-.229.4-.461.792a.57.57,0,0,0-.065.162.136.136,0,0,0,.105.183.577.577,0,0,0,.2.008.894.894,0,0,0,.22-.042.5.5,0,0,0,.273-.22c.077-.123.149-.25.219-.378s.074-.141.224-.141H368.6c.067,0,.072.008.037.07-.091.163-.186.324-.276.487a5.088,5.088,0,0,1-.289.47,1.914,1.914,0,0,1-.636.61,1.415,1.415,0,0,1-.534.166,2.7,2.7,0,0,1-.294.009Z" transform="translate(-349.111 -60.818)" fill="#fff"/>
        <path id="Path_18_-_Outline" data-name="Path 18 - Outline" d="M360.235,67.727h0q1.6,0,3.193,0h3.087a2.178,2.178,0,0,0,.238-.009,1.415,1.415,0,0,0,.534-.166,1.914,1.914,0,0,0,.636-.61,5.086,5.086,0,0,0,.289-.47c.09-.164.185-.324.276-.487.035-.062.03-.069-.037-.07h-3.487c-.15,0-.148,0-.224.141s-.141.255-.219.378a.5.5,0,0,1-.273.22.894.894,0,0,1-.22.042.577.577,0,0,1-.2-.008.136.136,0,0,1-.105-.183.57.57,0,0,1,.065-.162q.231-.4.461-.792l.946-1.638a1.282,1.282,0,0,1,.216-.3.417.417,0,0,1,.456-.1.178.178,0,0,1,.108.237.578.578,0,0,1-.04.094l-.428.8q-.193.359-.386.718c-.044.083-.043.084.047.084h3.6a.109.109,0,0,0,.114-.072c.044-.095.095-.186.143-.279l.43-.819c.1-.185.195-.369.29-.555a1.215,1.215,0,0,0,.156-.589.471.471,0,0,0-.128-.324.706.706,0,0,0-.28-.177,1.838,1.838,0,0,0-.654-.111q-2.377,0-4.754,0h-1.119a1.083,1.083,0,0,0-.25.031,1.649,1.649,0,0,0-.657.335,1.189,1.189,0,0,0-.3.339c-.12.213-.239.427-.359.641l-.861,1.536-.367.653c-.149.264-.293.531-.448.791a.541.541,0,0,0-.063.4.612.612,0,0,0,.568.48m0,1.849h0a2.452,2.452,0,0,1-2.376-1.944,2.4,2.4,0,0,1,.284-1.735c.1-.161.192-.333.292-.514l.132-.237.054-.1.312-.555.579-1.032.413-.737.23-.411a3.039,3.039,0,0,1,.747-.87,3.49,3.49,0,0,1,1.393-.7,2.944,2.944,0,0,1,.675-.081h2.38q1.748,0,3.5,0a3.687,3.687,0,0,1,1.307.232,2.512,2.512,0,0,1,.986.655,2.309,2.309,0,0,1,.614,1.534,3.022,3.022,0,0,1-.359,1.472c-.081.159-.164.317-.247.475l-.051.1-.211.4-.22.418-.042.079c-.023.042-.048.091-.058.112a2,2,0,0,1-.366.541,2.064,2.064,0,0,1-.1.2c-.042.074-.084.149-.127.224s-.1.17-.14.248a6.891,6.891,0,0,1-.394.641,3.715,3.715,0,0,1-1.262,1.172,3.266,3.266,0,0,1-1.222.383,3.922,3.922,0,0,1-.44.02h-6.276Z" transform="translate(-348.96 -60.667)"/>
        <path id="Path_17" data-name="Path 17" d="M106.478,67.88c-1.062,0-2.124,0-3.186,0a.627.627,0,0,1-.585-.5.539.539,0,0,1,.067-.382c.214-.375.424-.752.636-1.128l.333-.589.791-1.408c.088-.156.177-.312.263-.47a1.216,1.216,0,0,1,.292-.353,1.693,1.693,0,0,1,.666-.348,1.051,1.051,0,0,1,.263-.033q2.937,0,5.873,0a1.845,1.845,0,0,1,.62.1.714.714,0,0,1,.336.217.512.512,0,0,1,.1.384,1.783,1.783,0,0,1-.248.674c-.1.182-.192.365-.288.548s-.193.371-.29.555c-.069.131-.14.261-.207.393a.086.086,0,0,1-.089.052H108.21c-.073,0-.08-.013-.045-.079l.526-.973q.154-.285.307-.57a.378.378,0,0,0,.027-.068.173.173,0,0,0-.1-.232.407.407,0,0,0-.4.04.766.766,0,0,0-.224.26c-.3.507-.587,1.016-.88,1.524l-.569.982a.662.662,0,0,0-.077.181.137.137,0,0,0,.1.177.536.536,0,0,0,.181.011.813.813,0,0,0,.241-.041.519.519,0,0,0,.283-.229c.084-.136.162-.276.236-.418a.15.15,0,0,1,.152-.1q1.751,0,3.5,0c.029,0,.074-.007.085.014s-.015.058-.03.084c-.129.228-.258.456-.39.682a2.8,2.8,0,0,1-.462.609,1.437,1.437,0,0,1-.815.409,1.492,1.492,0,0,1-.209.015Q108.06,67.879,106.478,67.88Z" transform="translate(-100.849 -60.82)" fill="#fff"/>
        <path id="Path_16" data-name="Path 16" d="M612.465,63.762c.015,0,.036-.038.048-.06l.564-.984c.01-.017.021-.033.029-.05a.059.059,0,0,1,.057-.035h2.4c.076,0,.079,0,.079.083q0,2.521,0,5.042c0,.012,0,.025,0,.037,0,.03-.013.046-.042.047h-3.4c-.083,0-.083,0-.083-.085v-.973c0-.026,0-.073-.007-.077s-.037.029-.048.048c-.1.185-.2.37-.3.555-.089.162-.178.323-.266.485a.077.077,0,0,1-.08.047c-.026,0-.051,0-.077,0h-3.29c-.069,0-.071,0-.071-.075q0-.49,0-.98c0-.026,0-.08-.006-.084s-.036.032-.047.052l-.5.906c-.027.049-.055.1-.081.146a.058.058,0,0,1-.057.035h-1.066c-.089,0-.092,0-.047-.087l.433-.8.518-.961c.121-.224.243-.448.364-.672.16-.3.319-.594.479-.891.149-.275.3-.55.448-.825.16-.3.321-.593.479-.892a.131.131,0,0,1,.132-.082q1.631,0,3.262,0h.042c.068,0,.068,0,.071.076.01.205.027.411.031.616,0,.123,0,.2.01.333C612.449,63.682,612.452,63.758,612.465,63.762Z" transform="translate(-586.981 -60.782)" fill="#fff"/>
      </g>
      <path id="Path_19" data-name="Path 19" d="M1001.914,70.472c-.009.005-.009.013.021.014h1.343c.214,0,.429,0,.643,0a.1.1,0,0,0,.1-.058c.006-.014.016-.026.023-.04.114-.212.229-.423.342-.636a.307.307,0,0,0-.018-.347c-.031-.043-.039-.047-.089-.025s-.092.043-.138.064l-1.09.5-1.041.479C1001.993,70.434,1001.962,70.444,1001.914,70.472Z" transform="translate(-968.877 -67.288)" fill="#fff"/>
      <path id="Path_20" data-name="Path 20" d="M889.466,65.629v.456q0,1.023,0,2.047c0,.091,0,.091.087.091h.4c.1,0,.192,0,.288,0,.051,0,.055-.007.058-.058,0-.013,0-.026,0-.039V66.488c0-.107,0-.107.1-.107h3.829a.111.111,0,0,0,.1-.05l.258-.463q.255-.46.509-.921c.018-.032.055-.08.037-.1s-.066-.014-.1-.014h-4.618c-.02,0-.041,0-.061,0-.047,0-.056-.013-.058-.061,0-.013,0-.026,0-.039V63.146c0-.015,0-.031,0-.046,0-.054-.007-.059-.063-.061h-.666c-.1,0-.1,0-.1.1Z" transform="translate(-860.302 -61.175)" fill="#fff"/>
      <path id="Path_21" data-name="Path 21" d="M927.546,173.639H926.8c-.066,0-.069,0-.071-.069,0-.008,0-.015,0-.023q0-.629,0-1.258v-.008c0-.086,0-.088.077-.048q.443.242.887.484c.344.189.686.38,1.03.57.075.042.152.081.228.122l.034.018c.015.009.034.017.035.037s-.027.033-.045.039a2.755,2.755,0,0,1-.482.115,2.825,2.825,0,0,1-.452.023Z" transform="translate(-896.287 -166.59)" fill="#fff"/>
      <path id="Path_22" data-name="Path 22" d="M929.417,63.125c-.1.062-.212.105-.319.157-.178.085-.358.167-.536.25l-.584.273-.515.242-.659.31c-.046.022-.058.013-.061-.037,0-.01,0-.021,0-.031q0-.552,0-1.1c0-.081,0-.082.08-.082h2.6C929.439,63.106,929.447,63.108,929.417,63.125Z" transform="translate(-896.296 -61.239)" fill="#fff"/>
      <path id="Path_24" data-name="Path 24" d="M971.2,173.4c-.031-.02.049-.018.07-.018.194,0,.388,0,.582,0a.244.244,0,0,1,.115.032l.534.272c.059.03.119.055.178.085s.05.033.022.083-.063.111-.094.167c-.042.076-.047.078-.122.04l-.953-.486-.264-.134A.787.787,0,0,1,971.2,173.4Z" transform="translate(-939.221 -167.726)" fill="#fff"/>
      <path id="Path_25" data-name="Path 25" d="M1005.094,171.607c0-.01.049-.009.065-.009h.536c.019,0,.029.013.019.031-.036.068-.072.135-.111.2-.019.033-.047.021-.073.008l-.25-.127-.142-.073C1005.127,171.633,1005.094,171.615,1005.094,171.607Z" transform="translate(-971.952 -166)" fill="#fff"/>
    </g>
  </g>
  <path id="Polygon_1" data-name="Polygon 1" d="M4.676,1.2a1,1,0,0,1,1.648,0l3.6,5.235A1,1,0,0,1,9.1,8H1.9a1,1,0,0,1-.824-1.567Z" transform="translate(24.203 37) rotate(180)"/>
</svg>
